<svg xmlns="http://www.w3.org/2000/svg" viewBox="0 0 723.5 147.74"><title>Purple Turtle Creative</title><path d="M27.17,44.13H16.77V68.84H0V0H27.17C44,0,52.47,9.51,52.47,22.16,52.47,33.54,44.72,44.13,27.17,44.13ZM25.89,30.79c6.67,0,9.51-3.33,9.51-8.63s-2.84-8.63-9.51-8.63H16.77V30.79Z" style="fill:#3c56f5"/><path d="M60.63,0H77.4V41.19c0,8.14,4,12.85,12,12.85s12.17-4.71,12.17-12.85V0h16.76V41.09c0,19-13.33,28.44-29.22,28.44S60.63,60.12,60.63,41.09Z" style="fill:#3c56f5"/><path d="M160.38,0c16.87,0,25.3,9.71,25.3,21.67,0,8.63-4.71,16.77-15.3,19.91l15.89,27.26H167.34L153,42.86h-4v26H132.23V0Zm-1,13.93H149V31h10.4c6.27,0,9.22-3.24,9.22-8.63C168.62,17.26,165.67,13.93,159.4,13.93Z" style="fill:#3c56f5"/><path d="M224.41,44.13H214V68.84H197.25V0h27.16c16.87,0,25.3,9.51,25.3,22.16C249.71,33.54,242,44.13,224.41,44.13Zm-1.27-13.34c6.67,0,9.51-3.33,9.51-8.63s-2.84-8.63-9.51-8.63H214V30.79Z" style="fill:#3c56f5"/><path d="M275.08,0V55.9h22V68.84H258.31V0Z" style="fill:#3c56f5"/><path d="M347.15,13.44h-25.4V27.36H344.2v13H321.75v15.1h25.4V68.84H305V0h42.17Z" style="fill:#3c56f5"/><path d="M380,0h53.25V13.44H415v55.4H398.23V13.44H380Z" style="fill:#3c56f5"/><path d="M441.27,0H458V41.19c0,8.14,4,12.85,12,12.85s12.16-4.71,12.16-12.85V0h16.77V41.09c0,19-13.33,28.44-29.22,28.44s-28.44-9.41-28.44-28.44Z" style="fill:#3c56f5"/><path d="M541,0c16.86,0,25.3,9.71,25.3,21.67,0,8.63-4.71,16.77-15.3,19.91l15.89,27.26H548l-14.32-26h-4v26H512.87V0Zm-1,13.93h-10.4V31H540c6.27,0,9.21-3.24,9.21-8.63C549.25,17.26,546.31,13.93,540,13.93Z" style="fill:#3c56f5"/><path d="M573.25,0H626.5V13.44H608.26v55.4H591.49V13.44H573.25Z" style="fill:#3c56f5"/><path d="M651.43,0V55.9h22V68.84H634.66V0Z" style="fill:#3c56f5"/><path d="M723.5,13.44H698.1V27.36h22.46v13H698.1v15.1h25.4V68.84H681.33V0H723.5Z" style="fill:#3c56f5"/><g style="opacity:0.29"><path d="M192.93,91.08c12.32,0,22.33,6.59,26.07,18H206.2c-2.62-5.33-7.39-8-13.35-8-9.69,0-16.61,7.07-16.61,18.36s6.92,18.35,16.61,18.35c6,0,10.73-2.62,13.35-8H219c-3.74,11.44-13.75,18-26.07,18-16,0-28.13-11.68-28.13-28.29S177,91.08,192.93,91.08Z" style="fill:#3c56f5"/><path d="M255.38,91.79c13.35,0,20,7.71,20,17,0,6.75-3.73,13.59-12.63,16L276,147.26H263.16l-12.24-21.61h-5.24v21.61H234.55V91.79ZM255,101h-9.3V117.3H255c6.2,0,9-3.26,9-8.26S261.18,101,255,101Z" style="fill:#3c56f5"/><path d="M323.89,100.77H302.83v13.91H321.5v8.82H302.83v14.7h21.06v9.06H291.7V91.71h32.19Z" style="fill:#3c56f5"/><path d="M373.94,136.69H351.85l-3.66,10.57H336.51l19.95-55.55h13l19.95,55.55H377.6Zm-11.05-32.1-8,23.2h16.05Z" style="fill:#3c56f5"/><path d="M392.91,91.79H433.6v9H418.82v46.49H407.69V100.77H392.91Z" style="fill:#3c56f5"/><path d="M446.87,91.79H458v55.47H446.87Z" style="fill:#3c56f5"/><path d="M512.84,91.79h11.84l-20.34,55.47H490.83L470.49,91.79h11.92l15.26,44.11Z" style="fill:#3c56f5"/><path d="M569.54,100.77H548.48v13.91h18.68v8.82H548.48v14.7h21.06v9.06H537.36V91.71h32.18Z" style="fill:#3c56f5"/></g></svg>
